<?xml version="1.0" encoding="utf-8"?>
<!-- Generator: Adobe Illustrator 21.0.0, SVG Export Plug-In . SVG Version: 6.00 Build 0)  -->
<svg version="1.1" id="Layer_1" xmlns="http://www.w3.org/2000/svg" xmlns:xlink="http://www.w3.org/1999/xlink" x="0px" y="0px"
	 viewBox="0 0 402.9 196.7" style="enable-background:new 0 0 402.9 196.7;" xml:space="preserve">
<style type="text/css">
	.st0{fill:#0068FF;}
	.st1{fill:#333333;}
	.st2{fill:#FFFFFF;}
	.st3{fill:#888888;}
	.st4{fill:none;stroke:#FFFFFF;stroke-width:2;stroke-miterlimit:10;}
	.st5{fill:none;stroke:#0068FF;stroke-width:2;stroke-miterlimit:10;}
	.st6{fill:url(#SVGID_1_);}
	.st7{fill:url(#SVGID_2_);}
	.st8{fill:url(#SVGID_3_);}
	.st9{fill:url(#SVGID_4_);}
	.st10{fill:url(#SVGID_5_);}
	.st11{fill:url(#SVGID_6_);}
	.st12{fill:url(#SVGID_7_);}
	.st13{fill:url(#SVGID_8_);}
	.st14{fill:url(#SVGID_9_);}
	.st15{fill:url(#SVGID_10_);}
	.st16{fill:url(#SVGID_11_);}
	.st17{fill:url(#SVGID_12_);}
	.st18{fill:url(#SVGID_13_);}
	.st19{fill:url(#SVGID_14_);}
	.st20{fill:url(#SVGID_15_);}
	.st21{opacity:0.5;fill:none;stroke:#FFFFFF;stroke-miterlimit:10;}
	.st22{opacity:0.5;fill:none;stroke:#E1E1E1;stroke-miterlimit:10;}
	.st23{clip-path:url(#SVGID_17_);fill:#F3F3F5;}
	.st24{clip-path:url(#SVGID_17_);}
	.st25{fill:none;stroke:#E1E1E1;stroke-miterlimit:10;}
	.st26{fill:#0068FF;stroke:#0068FF;stroke-miterlimit:10;}
	.st27{fill:none;stroke:#FFFFFF;stroke-miterlimit:10;}
	.st28{fill:none;stroke:#FFFFFF;stroke-width:0.75;stroke-miterlimit:10;}
	.st29{fill:none;stroke:#FFFFFF;stroke-width:0.5;stroke-miterlimit:10;}
	.st30{fill:none;stroke:#FFFFFF;stroke-width:0.75;stroke-linejoin:round;stroke-miterlimit:10;}
</style>
<g>
	<g>
		<path class="st2" d="M114.1,51.8L84.9,13.1H73.7v104l23.2,14.8H17.2l23.2-14.8v-104H29.2L0,51.6V0l11.9,2.4H102l12-2.4V51.8z"/>
		<path class="st2" d="M252.5,182.1l14.6,14.6h-63.1l15.1-14.6v-48H178v48l15.1,14.6H130l14.6-14.6V81.8L130,67.2h63.1L178,81.8
			v41.4h41.1V81.8l-15.1-14.6h63.1l-14.6,14.6V182.1z"/>
		<path class="st2" d="M402.9,131.9h-63.7l12.6-18.8l-21.2-31.9L310.2,111l14.6,21h-48.5l47.4-61L278.3,2.4h58L325.2,17l21.2,31.4
			l16.8-22.3L346.9,2.4h49.5l-43.6,55.3L402.9,131.9z"/>
	</g>
</g>
</svg>
